<?xml version="1.0" standalone="no"?>
<svg viewBox="0 0 200 200" xmlns="http://www.w3.org/2000/svg">
  <path fill="#f52f35" d="M40.3,-62.4C53.4,-54.3,66,-45.1,75,-32.2C83.9,-19.4,89.3,-2.9,87,12.5C84.7,27.8,74.8,42,63.7,55.7C52.6,69.4,40.4,82.7,25.2,88C10.1,93.4,-8,91,-22.1,83.2C-36.3,75.5,-46.6,62.4,-58.4,50C-70.1,37.5,-83.2,25.7,-87,11.4C-90.8,-2.9,-85.2,-19.6,-76.8,-33.8C-68.3,-48,-57.1,-59.7,-43.9,-67.7C-30.6,-75.6,-15.3,-79.9,-0.8,-78.6C13.6,-77.3,27.2,-70.4,40.3,-62.4Z" transform="translate(100 100)" />
</svg>
