<?xml version="1.0" standalone="no"?>
<!DOCTYPE svg PUBLIC "-//W3C//DTD SVG 20010904//EN"
 "http://www.w3.org/TR/2001/REC-SVG-20010904/DTD/svg10.dtd">
<svg version="1.0" xmlns="http://www.w3.org/2000/svg"
 width="500.000000pt" height="500.000000pt" viewBox="0 0 500.000000 500.000000"
 preserveAspectRatio="xMidYMid meet">

<g transform="translate(0.000000,500.000000) scale(0.100000,-0.100000)"
fill="#000000" stroke="none">
<path d="M2460 3368 c-34 -56 -90 -150 -125 -208 -35 -58 -64 -108 -65 -112 0
-7 12 -11 60 -22 23 -5 32 6 105 114 44 66 84 118 90 116 5 -1 44 -53 87 -115
42 -62 78 -115 81 -117 6 -6 87 15 87 22 0 3 -16 29 -35 59 -19 30 -75 123
-126 207 -50 84 -93 155 -94 156 -2 2 -31 -43 -65 -100z"/>
<path d="M2386 2967 c-92 -136 -148 -208 -190 -246 -34 -30 -66 -56 -72 -58
-5 -2 -21 30 -35 72 l-26 75 39 0 c39 0 40 0 33 -32 l-7 -31 46 38 c26 21 51
46 56 56 13 24 -12 29 -149 29 l-113 0 6 -26 c9 -35 118 -254 147 -297 13 -17
35 -47 51 -65 l28 -33 0 35 c0 19 -5 57 -12 85 -11 50 -11 52 18 82 91 97 210
160 404 215 52 15 97 28 99 31 3 2 -5 13 -17 25 l-21 22 -83 -26 c-46 -14
-113 -38 -150 -52 -38 -14 -68 -23 -68 -19 0 3 13 22 30 43 25 31 46 43 134
74 l104 37 -52 76 c-28 42 -56 78 -61 79 -6 2 -68 -83 -139 -189z m157 52 c-5
-3 -21 -9 -36 -13 l-29 -7 23 32 c21 30 23 31 36 13 7 -10 10 -21 6 -25z"/>
<path d="M1821 2793 c67 -131 122 -239 124 -240 1 -2 15 14 32 35 l31 39 -32
74 c-18 41 -49 107 -69 147 l-35 72 143 0 143 0 6 28 c4 15 9 35 12 44 6 22
-24 25 -279 33 l-198 7 122 -239z"/>
<path d="M3033 3021 c-83 -4 -155 -9 -158 -13 -4 -3 -1 -24 6 -47 l12 -41 139
0 c76 0 138 -2 138 -5 0 -3 -4 -13 -10 -23 -38 -66 -119 -258 -115 -272 6 -19
53 -66 59 -59 7 8 236 457 236 463 0 7 -76 6 -307 -3z"/>
<path d="M2230 2970 c-16 -31 -11 -47 16 -54 27 -7 48 4 64 35 8 14 3 18 -30
27 -35 9 -42 8 -50 -8z"/>
<path d="M2770 2978 c-47 -13 -53 -20 -34 -46 16 -23 57 -29 82 -13 11 7 11
13 0 38 -12 28 -15 29 -48 21z"/>
<path d="M2827 2861 l-28 -6 33 -30 c18 -17 45 -41 60 -54 l27 -24 -9 32 -9
31 40 0 c44 0 45 -3 23 -55 -15 -37 -15 -39 8 -62 l24 -24 38 87 c21 48 40 93
43 100 4 11 -17 14 -108 13 -63 -1 -127 -4 -142 -8z"/>
<path d="M2672 2819 c-22 -8 -19 -12 49 -64 41 -30 106 -87 145 -126 68 -66
73 -69 83 -51 6 12 11 27 11 35 0 7 -45 53 -99 101 -55 49 -102 95 -105 102
-6 16 -49 17 -84 3z"/>
<path d="M2351 2657 c-49 -29 -63 -88 -36 -153 18 -44 162 -194 185 -194 23 0
167 150 185 194 8 19 15 47 15 61 0 96 -112 137 -174 64 l-25 -30 -28 31 c-33
36 -86 47 -122 27z"/>
<path d="M2985 2546 c-18 -27 -18 -29 0 -62 22 -41 28 -42 49 -9 21 31 20 34
-8 69 l-23 30 -18 -28z"/>
<path d="M2010 2535 l-23 -24 28 -37 28 -37 18 24 c23 29 23 33 4 69 -19 36
-25 37 -55 5z"/>
<path d="M2854 2494 c4 -38 8 -80 9 -93 2 -19 -15 -40 -76 -92 -43 -38 -102
-79 -130 -93 -51 -24 -245 -89 -300 -101 -26 -5 -27 -6 -11 -30 9 -14 24 -25
33 -25 19 0 153 44 239 79 l53 21 -18 -31 c-26 -46 -51 -61 -144 -93 -46 -16
-85 -30 -87 -32 -7 -5 92 -144 102 -144 6 0 25 22 42 48 130 201 207 305 279
374 l79 77 28 -66 c15 -36 28 -69 28 -74 0 -5 -18 -9 -40 -9 -38 0 -39 1 -30
25 14 38 0 31 -60 -30 l-54 -55 142 0 c78 0 142 2 142 4 0 17 -130 273 -166
327 -63 95 -68 96 -60 13z m-314 -520 c-11 -13 -15 -12 -33 3 -19 18 -19 18 9
23 33 6 42 -4 24 -26z"/>
<path d="M1823 2220 l-121 -240 31 0 c39 0 441 22 444 24 1 1 -3 21 -9 44
l-10 42 -139 0 c-77 0 -139 4 -139 8 0 5 29 71 65 146 l66 137 -31 40 c-18 21
-33 39 -34 39 -1 0 -56 -108 -123 -240z"/>
<path d="M2092 2425 c-10 -23 -4 -31 105 -139 l117 -115 49 11 49 10 -49 33
c-26 18 -94 76 -150 129 -55 53 -103 96 -105 96 -3 0 -10 -11 -16 -25z"/>
<path d="M3073 2428 c-11 -13 -23 -29 -27 -36 -6 -10 72 -196 114 -274 6 -10
10 -20 10 -23 0 -3 -63 -5 -140 -5 l-139 0 -11 -41 c-6 -23 -10 -42 -8 -44 6
-5 460 -27 464 -22 7 6 -226 467 -236 467 -3 0 -16 -10 -27 -22z"/>
<path d="M2017 2268 c-19 -40 -37 -83 -41 -95 l-7 -23 135 0 c75 0 136 4 136
8 0 8 -40 47 -89 87 l-24 20 7 -27 c6 -27 5 -28 -34 -28 l-41 0 16 30 c20 39
19 63 -4 84 -18 17 -20 15 -54 -56z"/>
<path d="M2232 2091 c-9 -5 -11 -17 -6 -34 5 -22 12 -27 38 -27 17 0 37 4 45
9 12 8 12 13 -3 35 -17 26 -49 34 -74 17z"/>
<path d="M2746 2074 c-21 -31 -10 -44 36 -44 20 0 28 7 37 30 7 22 7 30 -2 30
-7 0 -21 3 -33 6 -15 4 -26 -2 -38 -22z"/>
<path d="M2632 1906 c-32 -44 -68 -98 -81 -119 -13 -21 -26 -36 -29 -33 -3 3
-40 54 -82 113 l-76 108 -43 -2 c-24 -1 -46 -4 -48 -7 -3 -2 42 -81 99 -175
56 -93 112 -186 123 -205 11 -20 24 -35 28 -33 8 2 168 260 233 373 l24 41
-45 10 -45 10 -58 -81z"/>
</g>
</svg>
